<svg xmlns="http://www.w3.org/2000/svg" viewBox="0 0 120 120">

  <!-- Lateral Esq. barca -->
  <rect x="36" y="51" width="24" height="2" fill="#6d3d06" transform="rotate(64 18 30)" />
  
  <!-- Lateral Dret. barca -->
  <rect x="4" y="-59.7" width="24" height="2" fill="#6d3d06" transform="rotate(116 18 30)" />
  
  <!-- Part Inferior barca horitzontal -->
  <rect x="15" y="76.5" width="80" height="2" fill="#6d3d06" />

  <!-- Part Superior barca horitzontal -->
  <rect x="5" y="55" width="100" height="2" fill="#6d3d06" />
  
  <!-- Màstil -->
  <rect x="45" y="10" width="2" height="46" fill="#6d3d06" />

  <!-- Vela 1-->
  <rect x="28" y="-3.5" width="30" height="2" fill="#6d3d06" transform="rotate(36 18 30)" />

  <!-- Vela 2-->
  <rect x="-20.8" y="-3.8" width="32" height="2" fill="#6d3d06" transform="rotate(136 18 30)" />

  <!-- Cap persona-->
  <circle cx="95" cy="34" r="6" fill="#e7c7a1" /> 

  <!-- Cos persona-->
  <rect x="94" y="38.9" width="2" height="16.1" fill="#e7c7a1" />

  <!-- Canya -->
  <rect x="-36" y="-39.5" width="14" height="2" fill="#e7c7a1" transform="rotate(135 18 30)" />

  <!-- Fil canya -->
  <rect x="78.5" y="-32" width="44" height="1" fill="#ffffff" transform="rotate(54 18 30)" />

</svg>





